<mxfile host="app.diagrams.net" modified="2023-11-15T06:55:56.349Z" agent="Mozilla/5.0 (Windows NT 10.0; Win64; x64) AppleWebKit/537.36 (KHTML, like Gecko) Chrome/118.0.0.0 Safari/537.36" etag="Ah-P25gD52meZaHRC1mp" version="22.1.1" type="device">
  <diagram name="Seite-1" id="rpfmd2Ks3ffDalcANGvh">
    <mxGraphModel dx="1166" dy="614" grid="1" gridSize="10" guides="1" tooltips="1" connect="1" arrows="1" fold="1" page="1" pageScale="1" pageWidth="827" pageHeight="1169" math="0" shadow="0">
      <root>
        <mxCell id="0" />
        <mxCell id="1" parent="0" />
        <mxCell id="oKd342DAjf-iO3vQOo4u-2" value="&lt;b&gt;Web Browser&lt;br&gt;&lt;/b&gt;(Frontend UI)" style="rounded=0;whiteSpace=wrap;html=1;" vertex="1" parent="1">
          <mxGeometry x="153" y="110" width="120" height="60" as="geometry" />
        </mxCell>
        <mxCell id="oKd342DAjf-iO3vQOo4u-3" value="&lt;b&gt;Web Server&lt;br&gt;&lt;/b&gt;(ASP.NET API)" style="rounded=0;whiteSpace=wrap;html=1;" vertex="1" parent="1">
          <mxGeometry x="353" y="110" width="120" height="60" as="geometry" />
        </mxCell>
        <mxCell id="oKd342DAjf-iO3vQOo4u-4" value="&lt;b&gt;Datenbank&lt;br&gt;&lt;/b&gt;(MSSQL)" style="rounded=0;whiteSpace=wrap;html=1;" vertex="1" parent="1">
          <mxGeometry x="553" y="110" width="120" height="60" as="geometry" />
        </mxCell>
        <mxCell id="oKd342DAjf-iO3vQOo4u-6" value="" style="endArrow=none;dashed=1;html=1;dashPattern=1 3;strokeWidth=2;rounded=0;entryX=0.5;entryY=1;entryDx=0;entryDy=0;edgeStyle=orthogonalEdgeStyle;" edge="1" parent="1">
          <mxGeometry width="50" height="50" relative="1" as="geometry">
            <mxPoint x="413" y="270" as="sourcePoint" />
            <mxPoint x="213" y="170" as="targetPoint" />
          </mxGeometry>
        </mxCell>
        <mxCell id="oKd342DAjf-iO3vQOo4u-7" value="" style="endArrow=none;dashed=1;html=1;dashPattern=1 3;strokeWidth=2;rounded=0;entryX=0.5;entryY=1;entryDx=0;entryDy=0;edgeStyle=orthogonalEdgeStyle;" edge="1" parent="1">
          <mxGeometry width="50" height="50" relative="1" as="geometry">
            <mxPoint x="411" y="270" as="sourcePoint" />
            <mxPoint x="611" y="170" as="targetPoint" />
          </mxGeometry>
        </mxCell>
        <mxCell id="oKd342DAjf-iO3vQOo4u-8" value="" style="endArrow=none;dashed=1;html=1;dashPattern=1 3;strokeWidth=2;rounded=0;entryX=0.5;entryY=1;entryDx=0;entryDy=0;edgeStyle=orthogonalEdgeStyle;" edge="1" parent="1">
          <mxGeometry width="50" height="50" relative="1" as="geometry">
            <mxPoint x="412" y="271" as="sourcePoint" />
            <mxPoint x="412" y="171" as="targetPoint" />
          </mxGeometry>
        </mxCell>
        <mxCell id="oKd342DAjf-iO3vQOo4u-9" value="Netzwerkverbindung" style="text;html=1;strokeColor=none;fillColor=none;align=center;verticalAlign=middle;whiteSpace=wrap;rounded=0;" vertex="1" parent="1">
          <mxGeometry x="383" y="270" width="60" height="30" as="geometry" />
        </mxCell>
        <mxCell id="oKd342DAjf-iO3vQOo4u-10" value="" style="endArrow=classic;startArrow=classic;html=1;rounded=0;dashed=1;" edge="1" parent="1">
          <mxGeometry width="50" height="50" relative="1" as="geometry">
            <mxPoint x="288" y="140" as="sourcePoint" />
            <mxPoint x="338" y="140" as="targetPoint" />
          </mxGeometry>
        </mxCell>
        <mxCell id="oKd342DAjf-iO3vQOo4u-11" value="" style="endArrow=classic;startArrow=classic;html=1;rounded=0;dashed=1;" edge="1" parent="1">
          <mxGeometry width="50" height="50" relative="1" as="geometry">
            <mxPoint x="487" y="139.66000000000003" as="sourcePoint" />
            <mxPoint x="537" y="139.66000000000003" as="targetPoint" />
          </mxGeometry>
        </mxCell>
      </root>
    </mxGraphModel>
  </diagram>
</mxfile>
